<mxfile host="app.diagrams.net" modified="2020-11-19T10:19:38.149Z" agent="5.0 (Macintosh; Intel Mac OS X 10_15_7) AppleWebKit/537.36 (KHTML, like Gecko) Chrome/86.0.4240.193 Safari/537.36" etag="NgUGMtUh1L4OOPkboz-9" version="13.10.0" type="github">
  <diagram id="prtHgNgQTEPvFCAcTncT" name="Page-1">
    <mxGraphModel dx="2066" dy="1154" grid="1" gridSize="10" guides="1" tooltips="1" connect="1" arrows="1" fold="1" page="1" pageScale="1" pageWidth="827" pageHeight="1169" math="0" shadow="0">
      <root>
        <mxCell id="0" />
        <mxCell id="1" parent="0" />
        <mxCell id="7Ce21E6pJZC-Ax0Yo5jJ-1" value="Pagination/Data store" style="rounded=0;whiteSpace=wrap;html=1;fillColor=#d5e8d4;strokeColor=#82b366;fontSize=14;" vertex="1" parent="1">
          <mxGeometry x="304" y="290" width="210" height="80" as="geometry" />
        </mxCell>
        <mxCell id="7Ce21E6pJZC-Ax0Yo5jJ-4" style="edgeStyle=orthogonalEdgeStyle;rounded=0;orthogonalLoop=1;jettySize=auto;html=1;entryX=0.133;entryY=1.038;entryDx=0;entryDy=0;entryPerimeter=0;" edge="1" parent="1" source="7Ce21E6pJZC-Ax0Yo5jJ-2" target="7Ce21E6pJZC-Ax0Yo5jJ-1">
          <mxGeometry relative="1" as="geometry" />
        </mxCell>
        <mxCell id="7Ce21E6pJZC-Ax0Yo5jJ-2" value="Filtering store" style="rounded=0;whiteSpace=wrap;html=1;fillColor=#fff2cc;strokeColor=#d6b656;fontSize=14;" vertex="1" parent="1">
          <mxGeometry x="80" y="511" width="200" height="80" as="geometry" />
        </mxCell>
        <mxCell id="7Ce21E6pJZC-Ax0Yo5jJ-5" style="edgeStyle=orthogonalEdgeStyle;rounded=0;orthogonalLoop=1;jettySize=auto;html=1;entryX=1;entryY=0.838;entryDx=0;entryDy=0;entryPerimeter=0;" edge="1" parent="1" source="7Ce21E6pJZC-Ax0Yo5jJ-3" target="7Ce21E6pJZC-Ax0Yo5jJ-2">
          <mxGeometry relative="1" as="geometry" />
        </mxCell>
        <mxCell id="7Ce21E6pJZC-Ax0Yo5jJ-3" value="Accessories store" style="rounded=0;whiteSpace=wrap;html=1;fillColor=#ffe6cc;strokeColor=#d79b00;fontSize=14;" vertex="1" parent="1">
          <mxGeometry x="560" y="511" width="200" height="80" as="geometry" />
        </mxCell>
        <mxCell id="7Ce21E6pJZC-Ax0Yo5jJ-6" value="&lt;div&gt;&lt;span style=&quot;font-size: 14px&quot;&gt;Accessories store responsibilities:&lt;/span&gt;&lt;/div&gt;&lt;ul style=&quot;font-size: 14px&quot;&gt;&lt;li&gt;Store accessories&lt;/li&gt;&lt;li&gt;Request accessories&lt;/li&gt;&lt;li&gt;Fetch more info content&lt;/li&gt;&lt;li&gt;add item to basket&lt;/li&gt;&lt;li&gt;remore item from basket&lt;/li&gt;&lt;/ul&gt;" style="text;html=1;strokeColor=#d79b00;fillColor=#ffe6cc;align=left;verticalAlign=middle;whiteSpace=wrap;rounded=0;" vertex="1" parent="1">
          <mxGeometry x="810" y="511" width="290" height="130" as="geometry" />
        </mxCell>
        <mxCell id="7Ce21E6pJZC-Ax0Yo5jJ-14" style="edgeStyle=orthogonalEdgeStyle;rounded=0;orthogonalLoop=1;jettySize=auto;html=1;entryX=0.56;entryY=0.013;entryDx=0;entryDy=0;entryPerimeter=0;fontSize=14;" edge="1" parent="1" source="7Ce21E6pJZC-Ax0Yo5jJ-7" target="7Ce21E6pJZC-Ax0Yo5jJ-2">
          <mxGeometry relative="1" as="geometry" />
        </mxCell>
        <mxCell id="7Ce21E6pJZC-Ax0Yo5jJ-15" style="edgeStyle=orthogonalEdgeStyle;rounded=0;orthogonalLoop=1;jettySize=auto;html=1;exitX=0.5;exitY=1;exitDx=0;exitDy=0;entryX=0.5;entryY=0;entryDx=0;entryDy=0;fontSize=14;" edge="1" parent="1" source="7Ce21E6pJZC-Ax0Yo5jJ-7" target="7Ce21E6pJZC-Ax0Yo5jJ-1">
          <mxGeometry relative="1" as="geometry" />
        </mxCell>
        <mxCell id="7Ce21E6pJZC-Ax0Yo5jJ-16" style="edgeStyle=orthogonalEdgeStyle;rounded=0;orthogonalLoop=1;jettySize=auto;html=1;entryX=0.2;entryY=0;entryDx=0;entryDy=0;entryPerimeter=0;fontSize=14;" edge="1" parent="1" source="7Ce21E6pJZC-Ax0Yo5jJ-7" target="7Ce21E6pJZC-Ax0Yo5jJ-3">
          <mxGeometry relative="1" as="geometry" />
        </mxCell>
        <mxCell id="7Ce21E6pJZC-Ax0Yo5jJ-7" value="Accessories page store &lt;br style=&quot;font-size: 14px;&quot;&gt;(or main store)" style="rounded=0;whiteSpace=wrap;html=1;fillColor=#dae8fc;strokeColor=#6c8ebf;fontSize=14;" vertex="1" parent="1">
          <mxGeometry x="287" y="50" width="243" height="120" as="geometry" />
        </mxCell>
        <mxCell id="7Ce21E6pJZC-Ax0Yo5jJ-11" style="edgeStyle=orthogonalEdgeStyle;rounded=0;orthogonalLoop=1;jettySize=auto;html=1;entryX=0.5;entryY=1;entryDx=0;entryDy=0;" edge="1" parent="1" source="7Ce21E6pJZC-Ax0Yo5jJ-10" target="7Ce21E6pJZC-Ax0Yo5jJ-3">
          <mxGeometry relative="1" as="geometry" />
        </mxCell>
        <mxCell id="7Ce21E6pJZC-Ax0Yo5jJ-10" value="Sticky basket store" style="rounded=0;whiteSpace=wrap;html=1;fillColor=#e1d5e7;strokeColor=#9673a6;fontSize=14;" vertex="1" parent="1">
          <mxGeometry x="565" y="741" width="190" height="100" as="geometry" />
        </mxCell>
        <mxCell id="7Ce21E6pJZC-Ax0Yo5jJ-12" value="Main store responsibilities:&lt;br&gt;&lt;ul&gt;&lt;li&gt;initialise stores&lt;/li&gt;&lt;li&gt;check if any filter is present in the query string&lt;/li&gt;&lt;li&gt;if filters are present, pass them to filtering&lt;/li&gt;&lt;/ul&gt;" style="text;html=1;strokeColor=#6c8ebf;fillColor=#dae8fc;align=left;verticalAlign=middle;whiteSpace=wrap;rounded=0;fontSize=14;" vertex="1" parent="1">
          <mxGeometry x="610" y="50" width="300" height="130" as="geometry" />
        </mxCell>
      </root>
    </mxGraphModel>
  </diagram>
</mxfile>
